<?xml version="1.0" standalone="yes"?><svg class="card__icon" viewBox="0 0 200 200" xmlns="http://www.w3.org/2000/svg"> <path d="M100.294 24c8.822 0 16 7.178 16 16s-7.178 16-16 16-16-7.178-16-16 7.178-16 16-16m0 40c13.233 0 24-10.766 24-24 0-13.233-10.767-24-24-24s-24 10.767-24 24c0 13.234 10.767 24 24 24M152 176H48v-64h104v64zM62.594 84h14.782A23.89 23.89 0 0 0 76 92v4h48v-4a23.89 23.89 0 0 0-1.376-8h11.594l14.076 20H50.956l11.638-20zm23.566 0c2.772-4.776 7.933-8 13.84-8s11.068 3.224 13.84 8a15.87 15.87 0 0 1 1.654 4H84.506c.367-1.421.935-2.76 1.654-4m73.831 23.911a4.114 4.114 0 0 0-.071-.708l-.008-.029a4.027 4.027 0 0 0-.198-.64c-.025-.064-.053-.125-.081-.188a3.846 3.846 0 0 0-.266-.489c-.025-.04-.046-.081-.072-.12-.009-.013-.015-.026-.023-.039l-19.706-28A4.001 4.001 0 0 0 136.294 76h-18.425c-4.397-4.907-10.778-8-17.869-8-7.092 0-13.472 3.093-17.869 8H60.294a4 4 0 0 0-3.457 1.988l-16.294 28a4.058 4.058 0 0 0-.194.391c-.012.027-.029.053-.039.081a3.786 3.786 0 0 0-.201.646 4.054 4.054 0 0 0-.109.888V180a4 4 0 0 0 4 4h112a4 4 0 0 0 4-4v-72c0-.031-.009-.059-.009-.089" fill="currentColor"></path> <path d="M90.179 128.163c-4.037 0-7.342 3.702-7.367 8.252l-.008.224c-.035.584-.64 14.153 17.189 22.926 7.403-3.638 12.531-8.469 15.251-14.369 2.158-4.679 1.961-8.401 1.952-8.557l-.008-.224c-.026-4.55-3.33-8.252-7.367-8.252-2.551 0-4.888 1.468-6.253 3.925l-7.137-.001c-1.364-2.457-3.701-3.924-6.252-3.924m8.102 39.621l-.7-.325c-23.066-10.69-23.057-28.631-22.932-31.194.103-8.978 7.05-16.265 15.53-16.265 3.617 0 7.082 1.357 9.82 3.724 2.74-2.366 6.205-3.724 9.822-3.724 8.48 0 15.426 7.287 15.53 16.265.125 2.562.131 20.482-22.934 31.189l-.675.318-3.461.012z" fill="currentColor"></path> </svg>