<?xml version="1.0" standalone="yes"?><svg class="card__icon" viewBox="0 0 200 200" xmlns="http://www.w3.org/2000/svg"> <path d="M102.563 76.342a6.861 6.861 0 0 1 6.853 6.853c0 3.778-3.075 6.852-6.853 6.852-3.778 0-6.853-3.074-6.853-6.852a6.861 6.861 0 0 1 6.853-6.853m0 21.633c8.189 0 14.853-6.663 14.853-14.853s-6.664-14.852-14.853-14.852S87.71 74.932 87.71 83.122c0 8.19 6.664 14.853 14.853 14.853m41.938-62.358c3.824.005 6.939 3.119 6.943 6.943a6.95 6.95 0 0 1-6.943 6.943c-3.828 0-6.942-3.115-6.942-6.943a6.95 6.95 0 0 1 6.942-6.943m0 21.886h.001c8.228-.01 14.932-6.713 14.942-14.943 0-8.24-6.704-14.943-14.943-14.943s-14.943 6.703-14.943 14.943c0 8.24 6.704 14.943 14.943 14.943M55.347 35.617c3.824.005 6.939 3.119 6.943 6.943a6.95 6.95 0 0 1-6.943 6.943c-3.828 0-6.942-3.115-6.942-6.943 0-3.828 3.114-6.943 6.942-6.943m0 21.886h.001c8.228-.01 14.932-6.713 14.942-14.943 0-8.24-6.704-14.943-14.943-14.943S40.404 34.32 40.404 42.56c0 8.24 6.704 14.943 14.943 14.943M40.854 72.082h28.978l4.877 33.208.049.327h8.09l-6.126-41.535H33.956l-7.592 50.745-.067.44h8.09l6.467-43.185z" fill="currentColor"></path> <path d="M69.709 107.492H54.287c-7.436.03-13.746 5.617-14.677 13.003l-6.466 59.85 8.048.039 6.369-58.944a6.79 6.79 0 0 1 6.728-5.992h8.238l6.964 64.547.036.342h8.005l-7.787-72.503-.036-.342zm67.703 36.559h-7.618v36.332h8.001v-36.332h-.383zm21.831-39.974l6.44-20.823a14.73 14.73 0 0 0-1.706-12.849c-2.389-3.661-6.259-5.966-10.648-6.323l-17.593.001a14.13 14.13 0 0 0-10.688 6.317c-2.51 3.734-3.159 8.511-1.739 12.771l6.92 22.446h8.397l-7.707-24.905a6.75 6.75 0 0 1 .793-5.887 5.966 5.966 0 0 1 4.552-2.743l16.477-.001a5.98 5.98 0 0 1 4.593 2.733 6.814 6.814 0 0 1 .758 6.007l-7.276 23.644 12.988 31.967h-12.531v43.951h8.001v-35.95h16.411l-16.442-40.356zm-57.722 29.762c-5.798.559-10.411 5.173-10.971 10.98l-2.559 35.135-.03.411 7.976-.019 2.539-34.868a4.186 4.186 0 0 1 4.623-3.73 4.174 4.174 0 0 1 3.731 3.695l2.376 34.94h8.002l-2.38-35.573c-.643-6.675-6.449-11.602-13.307-10.971" fill="currentColor"></path> <path d="M108.279 104.852H95.537c-7.909 0-14.542 5.928-15.429 13.777l-3.264 22.866h8.09l3.115-21.809c.357-3.896 3.576-6.833 7.576-6.833h.002l12.716-.001a7.5 7.5 0 0 1 7.464 6.725l4.064 21.881h8.132l-4.305-23.169c-1.019-7.661-7.613-13.437-15.419-13.437" fill="currentColor"></path> </svg>