<svg class="card__icon" viewBox="0 0 200 200"> <path d="M119.597 32.001c-1.858 9.117-9.938 16-19.597 16-9.658 0-17.738-6.883-19.596-16h39.193zM28.78 93.377l10.655-42.621 33.249-16.625C75.489 46.63 86.666 56.001 100 56.001s24.512-9.371 27.317-21.87l33.249 16.625 10.655 42.621L156 98.45v8.434l24.78-8.26-13.345-53.378-42.49-21.245H75.056l-42.49 21.245-13.345 53.378L44 106.884V98.45l-15.22-5.073z" fill="currentColor"></path> <path d="M148 72.001h-8v96H60v-96h-8v104h96v-104z" fill="currentColor"></path> <path d="M115.319 97.149c-2.733 5.927-7.886 10.776-15.326 14.426-17.922-8.8-17.306-22.434-17.271-23.02l.008-.222c.026-4.595 3.366-8.332 7.448-8.332 2.58 0 4.946 1.482 6.325 3.965h6.994c1.379-2.483 3.744-3.965 6.324-3.965 4.082 0 7.423 3.737 7.448 8.332l.008.222c.009.156.209 3.893-1.958 8.594m-5.498-25.148c-3.62 0-7.089 1.368-9.821 3.75-2.733-2.382-6.202-3.75-9.822-3.75-8.436 0-15.345 7.25-15.447 16.184-.127 2.555-.146 20.445 22.883 31.117l.699.326 3.399-.012.671-.319c23.031-10.69 23.011-28.559 22.885-31.112-.101-8.934-7.011-16.184-15.447-16.184" fill="currentColor"></path> </svg>