<svg width="100" height="100" viewBox="0 0 200 200"> <path d="M113.77 111.39a34.31 34.31 0 1 0 34.31 34.31 34.35 34.35 0 0 0-34.31-34.31zm0 7.42a26.71 26.71 0 0 1 16.33 5.55L92.43 162a26.87 26.87 0 0 1 21.34-43.23zm0 53.78a26.72 26.72 0 0 1-16.07-5.34l37.62-37.62a26.88 26.88 0 0 1-21.55 43z" fill="currentColor"></path> <path d="M68.88 131.82a21.89 21.89 0 0 1-12.62-28.26l10.41-27.19 40.79 15.84-6.51 17v.06a38.4 38.4 0 0 1 8.69-2l17.82-46.56a29.29 29.29 0 0 0-54.71-21l-23.41 61.2a29.29 29.29 0 0 0 26.15 39.74 37.86 37.86 0 0 1 1.73-7.39 21.88 21.88 0 0 1-8.34-1.44zm10.77-89.37a21.88 21.88 0 0 1 40.87 15.65l-10.41 27.18-40.79-15.83z" fill="currentColor"></path> </svg>